<svg xmlns="http://www.w3.org/2000/svg" version="1.1" xmlns:xlink="http://www.w3.org/1999/xlink" xmlns:svgjs="http://svgjs.dev/svgjs" width="1500" height="1687" viewBox="0 0 1500 1687"><g transform="matrix(1,0,0,1,2.2737367544323206e-13,0)"><svg viewBox="0 0 320 360" data-background-color="#000000" preserveAspectRatio="xMidYMid meet" height="1687" width="1500" xmlns="http://www.w3.org/2000/svg" xmlns:xlink="http://www.w3.org/1999/xlink"><g id="tight-bounds" transform="matrix(1,0,0,1,0,0)"><svg viewBox="0 0 320 360" height="360" width="320"><rect width="320.0000000000001" height="360" fill="url(#f08a3b5c-9c89-4e87-bdcd-9bef25a6bd97)" mask="url(#4ab71531-1fde-4cbd-9dea-a6e6f273ae64)" data-fill-palette-color="tertiary"></rect><g><svg></svg></g><g><svg viewBox="0 0 320 360" height="360" width="320"><g><path d="M20.961 227.22l3.726 4.658-1.863-6.056c-0.466-2.795-3.726 0.466-1.863 1.398M25.153 224.425c1.397 2.329 2.795 4.658 2.795 6.987 0 3.261 2.795 4.658 5.123 5.589-3.261-3.726-5.124-13.974-7.918-12.576M204.017 26.929c7.918 0 15.371-0.932 23.756 0.931 20.495 5.124 37.729 15.371 49.374 29.811l32.606 52.169c1.397 13.042 4.192 27.482 3.726 43.319 3.261 0 2.795-4.658 6.521-5.59-3.726 9.316-5.59 20.961-6.521 34.469-2.329-7.453 0-18.632 0.466-24.687-3.261 5.124-5.124 1.397-5.124-0.932 0.466-3.726-1.397-3.261-2.795-4.658-5.124-4.658-8.384-9.782-12.11-17.7 2.329-6.055 2.795-14.905-4.658-19.563-2.329-1.397-5.124-3.726-6.521-7.453-1.863-5.124-5.124-11.179-4.193-19.097 0.466-2.329-6.987 5.124-11.179 1.863-18.166-12.576-36.332-27.016-58.224-39.127-11.645 0-20.029-4.192-24.221-9.316-3.726-4.658-0.932-10.713 4.658-11.179 3.261 0 6.987-0.932 9.782 0.932 0.466-1.863 2.329-4.192 4.657-4.192M157.904 16.215l0.932 0.466c4.658 0.932 6.987 7.453 12.11 5.124 0 3.261 0.466 6.521-0.466 8.85-1.397 3.726-5.59 3.726-8.85 3.726-31.208-1.863-49.374 11.179-68.471 22.358-5.124 3.261-10.713 5.59-14.906 9.782-20.029 18.632-41.921 35.866-47.045 70.335l-4.192 38.195c-0.466 4.192-5.124 8.384-4.192 13.508l3.26 22.824c-3.261-3.261-5.124 0.932-4.192 2.795 0.466 1.397 2.329 6.055 5.124 1.863 3.726 6.987 7.453 20.495 12.576 26.55 15.837 18.632 36.332 35.4 53.101 52.169 4.192-0.932 7.453-0.932 8.384-3.727 1.397 2.795-1.397 5.59-3.726 6.056 7.453 4.658 15.837 8.85 27.016 9.781 14.44 0.932 27.948 3.261 40.524 6.522 6.521-1.863 13.042-2.795 20.029-3.261 2.329 0 3.726-3.726 6.521-4.658l0.466-4.658c2.795 4.192 2.329-1.397 0.466-4.192 3.261 2.795 4.192 5.124 5.589 6.987 0-1.397 3.726-6.521 3.727-0.466l0.931-6.055c1.397-0.932 1.863 5.124 3.261 0.931 1.397-4.192 4.192-0.932 6.987-2.329-0.932 1.863-0.466 5.59 2.794 3.261l3.727-3.261c2.329 5.59 6.055 3.261 7.918 2.329 20.495-13.042 40.99-28.413 60.553-43.784l-0.466 6.055 2.329-7.453c2.329 2.329 4.192 0.466 5.124-0.931 2.795-4.658 6.521-9.316 12.577-13.508-7.453 20.029-16.303 35.866-27.482 48.908l-4.658 5.59c0 3.261-0.932 7.453-4.658 7.918-1.863 0.466-5.59-0.932-8.384 1.863-1.397 1.863 3.261 5.59-0.466 2.795-3.261-2.329-6.521 0-10.248 0.932-2.795 0.932 1.863 3.726 2.795 5.589 0.932 1.863 1.863 3.726 1.398 6.056l-5.124-5.59c-6.055 3.261-9.782 9.316-14.906 13.974-2.329 1.863-1.397 5.124-1.397 7.918-3.261 0-6.987-0.932-8.85 0.932-1.397 1.863-0.932 4.658-0.932 7.453-4.658-0.466-5.124-7.453-9.315-6.056-4.192 0.932-8.85 1.397-12.577 3.727 2.795 5.59-4.658 2.329-3.726 3.26-6.987-4.192-13.042-7.453-20.495-4.658-15.837-5.124-35.4-2.795-49.84-0.931 0-2.329 0.466-4.658-0.466-5.124-0.932 2.329-3.726 1.397-3.26 1.397-8.85-6.055-17.7-9.782-27.016-14.905-8.384 0.932-16.303-3.261-18.632-5.59-6.521-6.055-13.974-2.795-20.029-4.192-13.042-3.261-17.7-16.769-19.098-26.084-0.932-4.658-4.658-6.521-6.055-6.056-6.055-19.563-15.371-37.263-22.824-55.429-1.863-4.658-1.397-9.316-1.397-14.44 2.329 0.932 4.658 0.466 4.192-2.794-2.329-15.371-7.918-27.016-13.974-38.195 3.261-15.837 3.726-34.469 11.179-48.443 6.521-12.576 18.632-19.098 27.016-29.811 2.795-3.726 2.795-8.85 5.59-12.11 9.316-9.316 18.632-19.098 28.879-27.482 4.658-3.726 10.247 0 17.234-1.397 2.329-8.384 11.645-15.837 20.495-13.508 3.726 0.932 11.179-8.85 13.508-9.782 3.726-1.397 1.863 3.726 1.863 6.987 8.85-6.987 20.961-10.713 32.14-14.906" fill="url(#f08a3b5c-9c89-4e87-bdcd-9bef25a6bd97)" fill-rule="nonzero" stroke="none" stroke-width="1" stroke-linecap="butt" stroke-linejoin="miter" stroke-miterlimit="10" stroke-dasharray="" stroke-dashoffset="0" font-family="none" font-weight="none" font-size="none" text-anchor="none" style="mix-blend-mode: normal" data-fill-palette-color="tertiary"></path></g><g transform="matrix(1,0,0,1,64,144.33777777777777)"><svg viewBox="0 0 192 71.32444444444445" height="71.32444444444445" width="192"><g><svg viewBox="0 0 192 71.32444444444445" height="71.32444444444445" width="192"><g><svg viewBox="0 0 192 71.32444444444445" height="71.32444444444445" width="192"><g><svg viewBox="0 0 192 71.32444444444445" height="71.32444444444445" width="192"><g id="textblocktransform"><svg viewBox="0 0 192 71.32444444444445" height="71.32444444444445" width="192" id="textblock"><g><svg viewBox="0 0 192 71.32444444444445" height="71.32444444444445" width="192"><g transform="matrix(1,0,0,1,0,0)"><svg width="192" viewBox="3.999999999999999 -40 270 97.15" height="71.32444444444445" data-palette-color="url(#cafe1129-25b8-4bf1-8494-aeb4bbc69642)"><svg></svg><svg></svg><g class="wordmark-text-0" data-fill-palette-color="primary" id="text-0"></g></svg></g></svg></g></svg></g></svg></g><g></g></svg></g></svg></g></svg></g></svg></g><defs></defs><mask id="57e7699c-7170-46df-95f0-e60f27214320"><g id="SvgjsG1742"><svg viewBox="0 0 320 360" height="360" width="320"><g><svg></svg></g><g><svg viewBox="0 0 320 360" height="360" width="320"><g><path d="M20.961 227.22l3.726 4.658-1.863-6.056c-0.466-2.795-3.726 0.466-1.863 1.398M25.153 224.425c1.397 2.329 2.795 4.658 2.795 6.987 0 3.261 2.795 4.658 5.123 5.589-3.261-3.726-5.124-13.974-7.918-12.576M204.017 26.929c7.918 0 15.371-0.932 23.756 0.931 20.495 5.124 37.729 15.371 49.374 29.811l32.606 52.169c1.397 13.042 4.192 27.482 3.726 43.319 3.261 0 2.795-4.658 6.521-5.59-3.726 9.316-5.59 20.961-6.521 34.469-2.329-7.453 0-18.632 0.466-24.687-3.261 5.124-5.124 1.397-5.124-0.932 0.466-3.726-1.397-3.261-2.795-4.658-5.124-4.658-8.384-9.782-12.11-17.7 2.329-6.055 2.795-14.905-4.658-19.563-2.329-1.397-5.124-3.726-6.521-7.453-1.863-5.124-5.124-11.179-4.193-19.097 0.466-2.329-6.987 5.124-11.179 1.863-18.166-12.576-36.332-27.016-58.224-39.127-11.645 0-20.029-4.192-24.221-9.316-3.726-4.658-0.932-10.713 4.658-11.179 3.261 0 6.987-0.932 9.782 0.932 0.466-1.863 2.329-4.192 4.657-4.192M157.904 16.215l0.932 0.466c4.658 0.932 6.987 7.453 12.11 5.124 0 3.261 0.466 6.521-0.466 8.85-1.397 3.726-5.59 3.726-8.85 3.726-31.208-1.863-49.374 11.179-68.471 22.358-5.124 3.261-10.713 5.59-14.906 9.782-20.029 18.632-41.921 35.866-47.045 70.335l-4.192 38.195c-0.466 4.192-5.124 8.384-4.192 13.508l3.26 22.824c-3.261-3.261-5.124 0.932-4.192 2.795 0.466 1.397 2.329 6.055 5.124 1.863 3.726 6.987 7.453 20.495 12.576 26.55 15.837 18.632 36.332 35.4 53.101 52.169 4.192-0.932 7.453-0.932 8.384-3.727 1.397 2.795-1.397 5.59-3.726 6.056 7.453 4.658 15.837 8.85 27.016 9.781 14.44 0.932 27.948 3.261 40.524 6.522 6.521-1.863 13.042-2.795 20.029-3.261 2.329 0 3.726-3.726 6.521-4.658l0.466-4.658c2.795 4.192 2.329-1.397 0.466-4.192 3.261 2.795 4.192 5.124 5.589 6.987 0-1.397 3.726-6.521 3.727-0.466l0.931-6.055c1.397-0.932 1.863 5.124 3.261 0.931 1.397-4.192 4.192-0.932 6.987-2.329-0.932 1.863-0.466 5.59 2.794 3.261l3.727-3.261c2.329 5.59 6.055 3.261 7.918 2.329 20.495-13.042 40.99-28.413 60.553-43.784l-0.466 6.055 2.329-7.453c2.329 2.329 4.192 0.466 5.124-0.931 2.795-4.658 6.521-9.316 12.577-13.508-7.453 20.029-16.303 35.866-27.482 48.908l-4.658 5.59c0 3.261-0.932 7.453-4.658 7.918-1.863 0.466-5.59-0.932-8.384 1.863-1.397 1.863 3.261 5.59-0.466 2.795-3.261-2.329-6.521 0-10.248 0.932-2.795 0.932 1.863 3.726 2.795 5.589 0.932 1.863 1.863 3.726 1.398 6.056l-5.124-5.59c-6.055 3.261-9.782 9.316-14.906 13.974-2.329 1.863-1.397 5.124-1.397 7.918-3.261 0-6.987-0.932-8.85 0.932-1.397 1.863-0.932 4.658-0.932 7.453-4.658-0.466-5.124-7.453-9.315-6.056-4.192 0.932-8.85 1.397-12.577 3.727 2.795 5.59-4.658 2.329-3.726 3.26-6.987-4.192-13.042-7.453-20.495-4.658-15.837-5.124-35.4-2.795-49.84-0.931 0-2.329 0.466-4.658-0.466-5.124-0.932 2.329-3.726 1.397-3.26 1.397-8.85-6.055-17.7-9.782-27.016-14.905-8.384 0.932-16.303-3.261-18.632-5.59-6.521-6.055-13.974-2.795-20.029-4.192-13.042-3.261-17.7-16.769-19.098-26.084-0.932-4.658-4.658-6.521-6.055-6.056-6.055-19.563-15.371-37.263-22.824-55.429-1.863-4.658-1.397-9.316-1.397-14.44 2.329 0.932 4.658 0.466 4.192-2.794-2.329-15.371-7.918-27.016-13.974-38.195 3.261-15.837 3.726-34.469 11.179-48.443 6.521-12.576 18.632-19.098 27.016-29.811 2.795-3.726 2.795-8.85 5.59-12.11 9.316-9.316 18.632-19.098 28.879-27.482 4.658-3.726 10.247 0 17.234-1.397 2.329-8.384 11.645-15.837 20.495-13.508 3.726 0.932 11.179-8.85 13.508-9.782 3.726-1.397 1.863 3.726 1.863 6.987 8.85-6.987 20.961-10.713 32.14-14.906" fill="black" fill-rule="nonzero" stroke="none" stroke-width="1" stroke-linecap="butt" stroke-linejoin="miter" stroke-miterlimit="10" stroke-dasharray="" stroke-dashoffset="0" font-family="none" font-weight="none" font-size="none" text-anchor="none" style="mix-blend-mode: normal"></path></g><g transform="matrix(1,0,0,1,64,144.33777777777777)"><svg viewBox="0 0 192 71.32444444444445" height="71.32444444444445" width="192"><g><svg viewBox="0 0 192 71.32444444444445" height="71.32444444444445" width="192"><g><svg viewBox="0 0 192 71.32444444444445" height="71.32444444444445" width="192"><g><svg viewBox="0 0 192 71.32444444444445" height="71.32444444444445" width="192"><g id="SvgjsG1741"><svg viewBox="0 0 192 71.32444444444445" height="71.32444444444445" width="192" id="SvgjsSvg1740"><g><svg viewBox="0 0 192 71.32444444444445" height="71.32444444444445" width="192"><g transform="matrix(1,0,0,1,0,0)"><svg width="192" viewBox="3.999999999999999 -40 270 97.15" height="71.32444444444445" data-palette-color="url(#cafe1129-25b8-4bf1-8494-aeb4bbc69642)"><svg></svg><svg></svg><g class="wordmark-text-0" data-fill-palette-color="primary" id="SvgjsG1739"><path d="M13.3-22.85h9.65c0.867 0 1.767 0.183 2.7 0.55 0.933 0.367 1.833 0.85 2.7 1.45v0h-0.05c0.867 0.6 1.533 1.417 2 2.45 0.467 1.033 0.7 2.217 0.7 3.55v0 6.85c0 2.7-0.9 4.717-2.7 6.05v0c-0.867 0.633-1.757 1.123-2.67 1.47-0.92 0.353-1.813 0.53-2.68 0.53v0h-10.9c-0.867 0-1.757-0.177-2.67-0.53-0.92-0.347-1.813-0.837-2.68-1.47v0c-1.8-1.333-2.7-3.35-2.7-6.05v0-3.3c0-1.567 0.983-2.35 2.95-2.35v0c2 0 3 0.783 3 2.35v0 2.9c0 0.867 0.25 1.65 0.75 2.35 0.5 0.7 1.367 1.05 2.6 1.05v0h8.4c1.233 0 2.1-0.35 2.6-1.05 0.5-0.7 0.75-1.483 0.75-2.35v0-6.05c0-0.833-0.25-1.61-0.75-2.33-0.5-0.713-1.367-1.07-2.6-1.07v0h-9.65c-1.733 0-3.517-0.633-5.35-1.9v0c-1.8-1.4-2.7-3.417-2.7-6.05v0-5.95c0-1.333 0.233-2.507 0.7-3.52 0.467-1.02 1.133-1.847 2-2.48v0h-0.05c0.867-0.567 1.767-1.033 2.7-1.4 0.933-0.367 1.833-0.55 2.7-0.55v0h10.9c0.867 0 1.767 0.183 2.7 0.55 0.933 0.367 1.833 0.833 2.7 1.4v0h-0.05c0.867 0.633 1.533 1.46 2 2.48 0.467 1.013 0.7 2.187 0.7 3.52v0 2.95c0 1.567-1 2.35-3 2.35v0c-1.967 0-2.95-0.783-2.95-2.35v0-2.5c0-0.833-0.25-1.6-0.75-2.3-0.5-0.7-1.367-1.05-2.6-1.05v0h-8.4c-1.233 0-2.1 0.35-2.6 1.05-0.5 0.7-0.75 1.467-0.75 2.3v0 5.1c0 0.867 0.25 1.64 0.75 2.32 0.5 0.687 1.367 1.03 2.6 1.03zM54.45 0h-5.95c-1.2 0-1.833-0.783-1.9-2.35v0c0-1.567 0.633-2.35 1.9-2.35v0h5.05c1.233 0 2.11-0.35 2.63-1.05 0.513-0.7 0.77-1.45 0.77-2.25v0-14.1c0-0.833-0.257-1.61-0.77-2.33-0.52-0.713-1.413-1.037-2.68-0.97v0h-9.6v30.05c0 1.567-0.917 2.35-2.75 2.35v0c-1.833 0-2.75-0.8-2.75-2.4v0-31.75c0-1.167 0.3-1.95 0.9-2.35 0.6-0.4 1.333-0.6 2.2-0.6v0h12.95c0.867 0 1.743 0.15 2.63 0.45 0.88 0.3 1.787 0.717 2.72 1.25v0c0.8 0.567 1.443 1.357 1.93 2.37 0.48 1.02 0.72 2.213 0.72 3.58v0 14.8c0 2.733-0.883 4.683-2.65 5.85v0c-1.867 1.2-3.65 1.8-5.35 1.8zM74.2-22.15v14.15c0 0.8 0.26 1.55 0.78 2.25 0.513 0.7 1.387 1.05 2.62 1.05v0h6.25c1.233 0 2.11-0.31 2.63-0.93 0.513-0.613 0.77-1.32 0.77-2.12v0-0.55c0-1.567 0.917-2.35 2.75-2.35v0c1.833 0 2.75 0.783 2.75 2.35v0 0.6c0 1.4-0.223 2.55-0.67 3.45-0.453 0.9-1.13 1.683-2.03 2.35v0c-1.767 1.267-3.533 1.9-5.3 1.9v0h-8.4c-1.767 0-3.483-0.633-5.15-1.9v0c-0.8-0.667-1.417-1.507-1.85-2.52-0.433-1.02-0.65-2.197-0.65-3.53v0-14.25c0-2.7 0.833-4.7 2.5-6v0c0.833-0.6 1.693-1.077 2.58-1.43 0.88-0.347 1.737-0.52 2.57-0.52v0h8.4c0.8 0 1.683 0.157 2.65 0.47 0.967 0.32 1.867 0.747 2.7 1.28v0c0.8 0.567 1.443 1.35 1.93 2.35 0.48 1 0.72 2.183 0.72 3.55v0 6.75c0 0.767-0.223 1.45-0.67 2.05-0.453 0.6-1.28 0.9-2.48 0.9v0h-10.8c-1.2 0-1.833-0.783-1.9-2.35v0c0-1.567 0.633-2.35 1.9-2.35v0h8.5l-0.05-4.65c0-0.833-0.257-1.593-0.77-2.28-0.52-0.68-1.397-1.02-2.63-1.02v0h-6.25c-1.233 0-2.107 0.34-2.62 1.02-0.52 0.687-0.78 1.447-0.78 2.28zM104.6-22.15v14.15c0 0.8 0.26 1.55 0.78 2.25 0.513 0.7 1.387 1.05 2.62 1.05v0h6.25c1.233 0 2.11-0.31 2.63-0.93 0.513-0.613 0.77-1.32 0.77-2.12v0-0.55c0-1.567 0.917-2.35 2.75-2.35v0c1.833 0 2.75 0.783 2.75 2.35v0 0.6c0 1.4-0.223 2.55-0.67 3.45-0.453 0.9-1.13 1.683-2.03 2.35v0c-1.767 1.267-3.533 1.9-5.3 1.9v0h-8.4c-1.767 0-3.483-0.633-5.15-1.9v0c-0.8-0.667-1.417-1.507-1.85-2.52-0.433-1.02-0.65-2.197-0.65-3.53v0-14.25c0-2.7 0.833-4.7 2.5-6v0c0.833-0.6 1.693-1.077 2.58-1.43 0.88-0.347 1.737-0.52 2.57-0.52v0h8.4c0.8 0 1.683 0.157 2.65 0.47 0.967 0.32 1.867 0.747 2.7 1.28v0c0.8 0.567 1.443 1.35 1.93 2.35 0.48 1 0.72 2.183 0.72 3.55v0 6.75c0 0.767-0.223 1.45-0.67 2.05-0.453 0.6-1.28 0.9-2.48 0.9v0h-10.8c-1.2 0-1.833-0.783-1.9-2.35v0c0-1.567 0.633-2.35 1.9-2.35v0h8.5l-0.05-4.65c0-0.833-0.257-1.593-0.77-2.28-0.52-0.68-1.397-1.02-2.63-1.02v0h-6.25c-1.233 0-2.107 0.34-2.62 1.02-0.52 0.687-0.78 1.447-0.78 2.28zM148.05-1.75v-23.65h-9.65c-1.367 0-2.267 0.4-2.7 1.2v0c-0.467 0.7-0.7 1.517-0.7 2.45v0 14.4c0 0.867 0.267 1.523 0.8 1.97 0.533 0.453 1.417 0.68 2.65 0.68v0h5.15c1.2 0 1.8 0.783 1.8 2.35v0c0 0.667-0.14 1.223-0.42 1.67-0.287 0.453-0.747 0.68-1.38 0.68v0h-6.05c-2.1 0-3.967-0.533-5.6-1.6v0c-1.633-1-2.45-2.9-2.45-5.7v0-14.9c0-1.367 0.217-2.55 0.65-3.55 0.433-1 1.117-1.817 2.05-2.45v0c1.767-1.267 3.533-1.9 5.3-1.9v0h10.55v-7.5c0-1.6 0.917-2.4 2.75-2.4v0c1.833 0 2.75 0.8 2.75 2.4v0 35.5c0 1.6-0.917 2.4-2.75 2.4v0c-0.7 0-1.333-0.127-1.9-0.38-0.567-0.247-0.85-0.803-0.85-1.67zM165.55-22.75v20.65c0 1.6-0.917 2.4-2.75 2.4v0c-1.9 0-2.85-0.8-2.85-2.4v0-20.7c0-2.733 0.817-4.633 2.45-5.7v0c1.633-1.067 3.517-1.6 5.65-1.6v0h5.7c1.233 0 1.85 0.783 1.85 2.35v0c0.067 1.567-0.55 2.35-1.85 2.35v0h-5.3c-1.2 0-1.983 0.233-2.35 0.7-0.367 0.467-0.55 1.117-0.55 1.95zM203.9-28v20.05c0 1.333-0.233 2.517-0.7 3.55-0.467 1.033-1.133 1.867-2 2.5v0h0.05c-0.833 0.567-1.717 1.023-2.65 1.37-0.933 0.353-1.833 0.53-2.7 0.53v0h-8.05c-0.833 0-1.723-0.177-2.67-0.53-0.953-0.347-1.847-0.803-2.68-1.37v0h0.05c-0.867-0.633-1.533-1.467-2-2.5-0.467-1.033-0.7-2.217-0.7-3.55v0-20.05c0-1.6 0.917-2.4 2.75-2.4v0c1.833 0 2.75 0.8 2.75 2.4v0 19.65c0 0.933 0.233 1.75 0.7 2.45v0c0.433 0.8 1.333 1.2 2.7 1.2v0h6.25c1.333 0 2.217-0.4 2.65-1.2v0l-0.05 0.05c0.533-0.8 0.8-1.633 0.8-2.5v0-19.65c0-1.6 0.917-2.4 2.75-2.4v0c1.833 0 2.75 0.8 2.75 2.4zM215.65-21.75v19.65c0 1.6-0.917 2.4-2.75 2.4v0c-1.833 0-2.75-0.8-2.75-2.4v0-20.1c0-1.367 0.217-2.55 0.65-3.55 0.433-1 1.117-1.817 2.05-2.45v0c1.767-1.267 3.533-1.9 5.3-1.9v0h8.05c1.7 0 3.467 0.633 5.3 1.9v0c1.8 1.267 2.7 3.267 2.7 6v0 20.1c0 1.6-0.917 2.4-2.75 2.4v0c-1.833 0-2.75-0.8-2.75-2.4v0-19.65c0-0.867-0.267-1.7-0.8-2.5v0l0.05 0.05c-0.433-0.8-1.317-1.2-2.65-1.2v0h-6.25c-1.367 0-2.267 0.4-2.7 1.2v0c-0.467 0.7-0.7 1.517-0.7 2.45z" fill="white" fill-rule="nonzero" stroke="none" stroke-width="1" stroke-linecap="butt" stroke-linejoin="miter" stroke-miterlimit="10" stroke-dasharray="" stroke-dashoffset="0" font-family="none" font-weight="none" font-size="none" text-anchor="none" style="mix-blend-mode: normal" opacity="1"></path><path d="M14.85 45.15h6.8c1.233 0 2.1-0.35 2.6-1.05 0.5-0.7 0.75-1.483 0.75-2.35v0-22.9c0-0.833-0.25-1.6-0.75-2.3-0.5-0.7-1.367-1.05-2.6-1.05v0h-11.7l-0.05 32.6c0 0.733-0.283 1.317-0.85 1.75-0.567 0.433-1.267 0.65-2.1 0.65v0c-1.967 0-2.95-0.8-2.95-2.4v0-34.65c0-1.2 0.31-2 0.93-2.4 0.613-0.4 1.353-0.6 2.22-0.6v0h15.75c0.867 0 1.767 0.183 2.7 0.55 0.933 0.367 1.833 0.833 2.7 1.4v0h-0.05c0.867 0.633 1.533 1.46 2 2.48 0.467 1.013 0.7 2.187 0.7 3.52v0 23.75c0 2.7-0.9 4.717-2.7 6.05v0c-0.867 0.633-1.757 1.123-2.67 1.47-0.92 0.353-1.813 0.53-2.68 0.53v0h-8.4c-0.567 0-1.007-0.233-1.32-0.7-0.32-0.467-0.48-1.083-0.48-1.85v0c0-1.667 0.717-2.5 2.15-2.5zM43.55 28v14.15c0 0.8 0.26 1.55 0.78 2.25 0.513 0.7 1.387 1.05 2.62 1.05v0h6.25c1.233 0 2.11-0.31 2.63-0.93 0.513-0.613 0.77-1.32 0.77-2.12v0-0.55c0-1.567 0.917-2.35 2.75-2.35v0c1.833 0 2.75 0.783 2.75 2.35v0 0.6c0 1.4-0.227 2.55-0.68 3.45-0.447 0.9-1.12 1.683-2.02 2.35v0c-1.767 1.267-3.533 1.9-5.3 1.9v0h-8.4c-1.767 0-3.483-0.633-5.15-1.9v0c-0.8-0.667-1.417-1.507-1.85-2.52-0.433-1.02-0.65-2.197-0.65-3.53v0-14.25c0-2.7 0.833-4.7 2.5-6v0c0.833-0.6 1.693-1.077 2.58-1.43 0.88-0.347 1.737-0.52 2.57-0.52v0h8.4c0.8 0 1.683 0.157 2.65 0.47 0.967 0.32 1.867 0.747 2.7 1.28v0c0.8 0.567 1.443 1.35 1.93 2.35 0.48 1 0.72 2.183 0.72 3.55v0 6.75c0 0.767-0.227 1.45-0.68 2.05-0.447 0.6-1.27 0.9-2.47 0.9v0h-10.8c-1.2 0-1.833-0.783-1.9-2.35v0c0-1.567 0.633-2.35 1.9-2.35v0h8.5l-0.05-4.65c0-0.833-0.257-1.593-0.77-2.28-0.52-0.68-1.397-1.02-2.63-1.02v0h-6.25c-1.233 0-2.107 0.34-2.62 1.02-0.52 0.687-0.78 1.447-0.78 2.28zM79.2 50.45h-0.55c-0.067 0-0.15-0.007-0.25-0.02-0.1-0.02-0.2-0.03-0.3-0.03v0c-0.167 0-0.4 0-0.7 0v0c-0.3 0-0.583-0.017-0.85-0.05v0c-0.567-0.033-1.05-0.193-1.45-0.48-0.4-0.28-0.683-0.62-0.85-1.02v0l-8.4-25.8c-0.167-0.7-0.073-1.327 0.28-1.88 0.347-0.547 0.903-0.953 1.67-1.22v0c0.233-0.067 0.467-0.117 0.7-0.15 0.233-0.033 0.433-0.05 0.6-0.05v0c1.033 0 1.75 0.567 2.15 1.7v0l3.65 11.35 3.85 11.9 7.5-23.25c0.367-1.167 1.033-1.75 2-1.75v0c0.367 0 0.833 0.083 1.4 0.25v0c0.867 0.233 1.467 0.623 1.8 1.17 0.333 0.553 0.383 1.197 0.15 1.93v0l-8.35 25.8c-0.3 0.933-1.083 1.433-2.35 1.5v0c-0.067 0-0.14 0.01-0.22 0.03-0.087 0.013-0.163 0.02-0.23 0.02v0c-0.267 0.033-0.5 0.05-0.7 0.05v0c-0.2 0-0.383 0-0.55 0zM101.55 28v14.15c0 0.8 0.26 1.55 0.78 2.25 0.513 0.7 1.387 1.05 2.62 1.05v0h6.25c1.233 0 2.11-0.31 2.63-0.93 0.513-0.613 0.77-1.32 0.77-2.12v0-0.55c0-1.567 0.917-2.35 2.75-2.35v0c1.833 0 2.75 0.783 2.75 2.35v0 0.6c0 1.4-0.227 2.55-0.68 3.45-0.447 0.9-1.12 1.683-2.02 2.35v0c-1.767 1.267-3.533 1.9-5.3 1.9v0h-8.4c-1.767 0-3.483-0.633-5.15-1.9v0c-0.8-0.667-1.417-1.507-1.85-2.52-0.433-1.02-0.65-2.197-0.65-3.53v0-14.25c0-2.7 0.833-4.7 2.5-6v0c0.833-0.6 1.693-1.077 2.58-1.43 0.88-0.347 1.737-0.52 2.57-0.52v0h8.4c0.8 0 1.683 0.157 2.65 0.47 0.967 0.32 1.867 0.747 2.7 1.28v0c0.8 0.567 1.443 1.35 1.93 2.35 0.48 1 0.72 2.183 0.72 3.55v0 6.75c0 0.767-0.227 1.45-0.68 2.05-0.447 0.6-1.27 0.9-2.47 0.9v0h-10.8c-1.2 0-1.833-0.783-1.9-2.35v0c0-1.567 0.633-2.35 1.9-2.35v0h8.5l-0.05-4.65c0-0.833-0.257-1.593-0.77-2.28-0.52-0.68-1.397-1.02-2.63-1.02v0h-6.25c-1.233 0-2.107 0.34-2.62 1.02-0.52 0.687-0.78 1.447-0.78 2.28zM132.15 12.35v35.85c0 1.567-0.917 2.35-2.75 2.35v0c-1.867 0-2.8-0.783-2.8-2.35v0-35.85c0-1.567 0.933-2.35 2.8-2.35v0c1.833 0 2.75 0.783 2.75 2.35zM147.05 20.05h8c0.867 0 1.757 0.183 2.67 0.55 0.92 0.367 1.813 0.833 2.68 1.4v0h-0.05c0.867 0.633 1.533 1.457 2 2.47 0.467 1.02 0.7 2.197 0.7 3.53v0 14.2c0 2.733-0.9 4.75-2.7 6.05v0c-1.767 1.267-3.533 1.9-5.3 1.9v0h-8c-0.867 0-1.75-0.15-2.65-0.45-0.9-0.3-1.783-0.783-2.65-1.45v0c-1.8-1.267-2.7-3.283-2.7-6.05v0-14.2c0-1.333 0.233-2.51 0.7-3.53 0.467-1.013 1.133-1.837 2-2.47v0h-0.05c0.833-0.567 1.717-1.033 2.65-1.4 0.933-0.367 1.833-0.55 2.7-0.55zM147.95 45.45h6.2c1.233 0 2.11-0.35 2.63-1.05 0.513-0.7 0.77-1.45 0.77-2.25v0-14.1c0-0.833-0.257-1.593-0.77-2.28-0.52-0.68-1.397-1.02-2.63-1.02v0h-6.2c-1.233 0-2.11 0.34-2.63 1.02-0.513 0.687-0.77 1.447-0.77 2.28v0 14.1c0 0.8 0.257 1.55 0.77 2.25 0.52 0.7 1.397 1.05 2.63 1.05zM185.4 50.15h-5.95c-1.2 0-1.833-0.783-1.9-2.35v0c0-1.567 0.633-2.35 1.9-2.35v0h5.05c1.233 0 2.11-0.35 2.63-1.05 0.513-0.7 0.77-1.45 0.77-2.25v0-14.1c0-0.833-0.257-1.61-0.77-2.33-0.52-0.713-1.413-1.037-2.68-0.97v0h-9.6v30.05c0 1.567-0.917 2.35-2.75 2.35v0c-1.833 0-2.75-0.8-2.75-2.4v0-31.75c0-1.167 0.3-1.95 0.9-2.35 0.6-0.4 1.333-0.6 2.2-0.6v0h12.95c0.867 0 1.743 0.15 2.63 0.45 0.88 0.3 1.787 0.717 2.72 1.25v0c0.8 0.567 1.443 1.357 1.93 2.37 0.48 1.02 0.72 2.213 0.72 3.58v0 14.8c0 2.733-0.883 4.683-2.65 5.85v0c-1.867 1.2-3.65 1.8-5.35 1.8zM205.15 28v14.15c0 0.8 0.26 1.55 0.78 2.25 0.513 0.7 1.387 1.05 2.62 1.05v0h6.25c1.233 0 2.11-0.31 2.63-0.93 0.513-0.613 0.77-1.32 0.77-2.12v0-0.55c0-1.567 0.917-2.35 2.75-2.35v0c1.833 0 2.75 0.783 2.75 2.35v0 0.6c0 1.4-0.223 2.55-0.67 3.45-0.453 0.9-1.13 1.683-2.03 2.35v0c-1.767 1.267-3.533 1.9-5.3 1.9v0h-8.4c-1.767 0-3.483-0.633-5.15-1.9v0c-0.8-0.667-1.417-1.507-1.85-2.52-0.433-1.02-0.65-2.197-0.65-3.53v0-14.25c0-2.7 0.833-4.7 2.5-6v0c0.833-0.6 1.693-1.077 2.58-1.43 0.88-0.347 1.737-0.52 2.57-0.52v0h8.4c0.8 0 1.683 0.157 2.65 0.47 0.967 0.32 1.867 0.747 2.7 1.28v0c0.8 0.567 1.443 1.35 1.93 2.35 0.48 1 0.72 2.183 0.72 3.55v0 6.75c0 0.767-0.223 1.45-0.67 2.05-0.453 0.6-1.28 0.9-2.48 0.9v0h-10.8c-1.2 0-1.833-0.783-1.9-2.35v0c0-1.567 0.633-2.35 1.9-2.35v0h8.5l-0.05-4.65c0-0.833-0.257-1.593-0.77-2.28-0.52-0.68-1.397-1.02-2.63-1.02v0h-6.25c-1.233 0-2.107 0.34-2.62 1.02-0.52 0.687-0.78 1.447-0.78 2.28zM235.45 27.4v20.65c0 1.6-0.917 2.4-2.75 2.4v0c-1.9 0-2.85-0.8-2.85-2.4v0-20.7c0-2.733 0.817-4.633 2.45-5.7v0c1.633-1.067 3.517-1.6 5.65-1.6v0h5.7c1.233 0 1.85 0.783 1.85 2.35v0c0.067 1.567-0.55 2.35-1.85 2.35v0h-5.3c-1.2 0-1.983 0.233-2.35 0.7-0.367 0.467-0.55 1.117-0.55 1.95zM258.65 32.65h7.35c0.833 0 1.727 0.19 2.68 0.57 0.947 0.387 1.837 0.863 2.67 1.43v0h-0.05c0.867 0.633 1.533 1.45 2 2.45 0.467 1 0.7 2.2 0.7 3.6v0 1.5c0 2.733-0.9 4.75-2.7 6.05v0c-0.867 0.667-1.75 1.15-2.65 1.45-0.9 0.3-1.783 0.45-2.65 0.45v0h-8.5c-0.867 0-1.75-0.15-2.65-0.45-0.9-0.3-1.783-0.783-2.65-1.45v0c-1.8-1.267-2.7-3.283-2.7-6.05v0-0.6c0-1.433 0.917-2.133 2.75-2.1v0c1.867 0 2.8 0.7 2.8 2.1v0 0.55c0 0.8 0.25 1.55 0.75 2.25 0.5 0.7 1.383 1.05 2.65 1.05v0h6.6c1.267 0 2.15-0.35 2.65-1.05 0.5-0.7 0.75-1.45 0.75-2.25v0-1.4c0-0.433-0.057-0.85-0.17-1.25-0.12-0.4-0.313-0.76-0.58-1.08-0.267-0.313-0.617-0.57-1.05-0.77-0.433-0.2-0.967-0.3-1.6-0.3v0h-7.3c-1.7 0-3.483-0.6-5.35-1.8v0c-1.767-1.133-2.65-3.083-2.65-5.85v0-1.7c0-1.333 0.233-2.51 0.7-3.53 0.467-1.013 1.133-1.837 2-2.47v0h-0.05c0.833-0.567 1.717-1.033 2.65-1.4 0.933-0.367 1.833-0.55 2.7-0.55v0h8c0.867 0 1.76 0.183 2.68 0.55 0.913 0.367 1.803 0.833 2.67 1.4v0h-0.05c0.867 0.633 1.533 1.457 2 2.47 0.467 1.02 0.7 2.197 0.7 3.53v0 0.45c0 0.7-0.233 1.207-0.7 1.52-0.467 0.32-1.15 0.497-2.05 0.53v0c-1.833 0.033-2.75-0.65-2.75-2.05v0-0.4c0-0.833-0.257-1.593-0.77-2.28-0.52-0.68-1.397-1.02-2.63-1.02v0h-6.2c-1.233 0-2.107 0.34-2.62 1.02-0.52 0.687-0.78 1.447-0.78 2.28v0 1.2c0 0.867 0.26 1.65 0.78 2.35 0.513 0.7 1.387 1.05 2.62 1.05z" fill="white" fill-rule="nonzero" stroke="none" stroke-width="1" stroke-linecap="butt" stroke-linejoin="miter" stroke-miterlimit="10" stroke-dasharray="" stroke-dashoffset="0" font-family="none" font-weight="none" font-size="none" text-anchor="none" style="mix-blend-mode: normal" opacity="1"></path></g></svg></g></svg></g></svg></g></svg></g><g></g></svg></g></svg></g></svg></g></svg></g><defs><mask></mask></defs></svg><rect width="320" height="360" fill="black" stroke="none" visibility="hidden"></rect></g></mask><linearGradient x1="0" x2="1" y1="0.578" y2="0.595" id="cafe1129-25b8-4bf1-8494-aeb4bbc69642"><stop stop-color="#6ee2f5" offset="0"></stop><stop stop-color="#6454f0" offset="1"></stop></linearGradient><rect width="320.00000000000006" height="360" fill="url(#cafe1129-25b8-4bf1-8494-aeb4bbc69642)" mask="url(#57e7699c-7170-46df-95f0-e60f27214320)" data-fill-palette-color="primary"></rect><mask id="4ab71531-1fde-4cbd-9dea-a6e6f273ae64"><g id="SvgjsG1768"><svg viewBox="0 0 320 360" height="360" width="320"><g><svg></svg></g><g><svg viewBox="0 0 320 360" height="360" width="320"><g><path d="M20.961 227.22l3.726 4.658-1.863-6.056c-0.466-2.795-3.726 0.466-1.863 1.398M25.153 224.425c1.397 2.329 2.795 4.658 2.795 6.987 0 3.261 2.795 4.658 5.123 5.589-3.261-3.726-5.124-13.974-7.918-12.576M204.017 26.929c7.918 0 15.371-0.932 23.756 0.931 20.495 5.124 37.729 15.371 49.374 29.811l32.606 52.169c1.397 13.042 4.192 27.482 3.726 43.319 3.261 0 2.795-4.658 6.521-5.59-3.726 9.316-5.59 20.961-6.521 34.469-2.329-7.453 0-18.632 0.466-24.687-3.261 5.124-5.124 1.397-5.124-0.932 0.466-3.726-1.397-3.261-2.795-4.658-5.124-4.658-8.384-9.782-12.11-17.7 2.329-6.055 2.795-14.905-4.658-19.563-2.329-1.397-5.124-3.726-6.521-7.453-1.863-5.124-5.124-11.179-4.193-19.097 0.466-2.329-6.987 5.124-11.179 1.863-18.166-12.576-36.332-27.016-58.224-39.127-11.645 0-20.029-4.192-24.221-9.316-3.726-4.658-0.932-10.713 4.658-11.179 3.261 0 6.987-0.932 9.782 0.932 0.466-1.863 2.329-4.192 4.657-4.192M157.904 16.215l0.932 0.466c4.658 0.932 6.987 7.453 12.11 5.124 0 3.261 0.466 6.521-0.466 8.85-1.397 3.726-5.59 3.726-8.85 3.726-31.208-1.863-49.374 11.179-68.471 22.358-5.124 3.261-10.713 5.59-14.906 9.782-20.029 18.632-41.921 35.866-47.045 70.335l-4.192 38.195c-0.466 4.192-5.124 8.384-4.192 13.508l3.26 22.824c-3.261-3.261-5.124 0.932-4.192 2.795 0.466 1.397 2.329 6.055 5.124 1.863 3.726 6.987 7.453 20.495 12.576 26.55 15.837 18.632 36.332 35.4 53.101 52.169 4.192-0.932 7.453-0.932 8.384-3.727 1.397 2.795-1.397 5.59-3.726 6.056 7.453 4.658 15.837 8.85 27.016 9.781 14.44 0.932 27.948 3.261 40.524 6.522 6.521-1.863 13.042-2.795 20.029-3.261 2.329 0 3.726-3.726 6.521-4.658l0.466-4.658c2.795 4.192 2.329-1.397 0.466-4.192 3.261 2.795 4.192 5.124 5.589 6.987 0-1.397 3.726-6.521 3.727-0.466l0.931-6.055c1.397-0.932 1.863 5.124 3.261 0.931 1.397-4.192 4.192-0.932 6.987-2.329-0.932 1.863-0.466 5.59 2.794 3.261l3.727-3.261c2.329 5.59 6.055 3.261 7.918 2.329 20.495-13.042 40.99-28.413 60.553-43.784l-0.466 6.055 2.329-7.453c2.329 2.329 4.192 0.466 5.124-0.931 2.795-4.658 6.521-9.316 12.577-13.508-7.453 20.029-16.303 35.866-27.482 48.908l-4.658 5.59c0 3.261-0.932 7.453-4.658 7.918-1.863 0.466-5.59-0.932-8.384 1.863-1.397 1.863 3.261 5.59-0.466 2.795-3.261-2.329-6.521 0-10.248 0.932-2.795 0.932 1.863 3.726 2.795 5.589 0.932 1.863 1.863 3.726 1.398 6.056l-5.124-5.59c-6.055 3.261-9.782 9.316-14.906 13.974-2.329 1.863-1.397 5.124-1.397 7.918-3.261 0-6.987-0.932-8.85 0.932-1.397 1.863-0.932 4.658-0.932 7.453-4.658-0.466-5.124-7.453-9.315-6.056-4.192 0.932-8.85 1.397-12.577 3.727 2.795 5.59-4.658 2.329-3.726 3.26-6.987-4.192-13.042-7.453-20.495-4.658-15.837-5.124-35.4-2.795-49.84-0.931 0-2.329 0.466-4.658-0.466-5.124-0.932 2.329-3.726 1.397-3.26 1.397-8.85-6.055-17.7-9.782-27.016-14.905-8.384 0.932-16.303-3.261-18.632-5.59-6.521-6.055-13.974-2.795-20.029-4.192-13.042-3.261-17.7-16.769-19.098-26.084-0.932-4.658-4.658-6.521-6.055-6.056-6.055-19.563-15.371-37.263-22.824-55.429-1.863-4.658-1.397-9.316-1.397-14.44 2.329 0.932 4.658 0.466 4.192-2.794-2.329-15.371-7.918-27.016-13.974-38.195 3.261-15.837 3.726-34.469 11.179-48.443 6.521-12.576 18.632-19.098 27.016-29.811 2.795-3.726 2.795-8.85 5.59-12.11 9.316-9.316 18.632-19.098 28.879-27.482 4.658-3.726 10.247 0 17.234-1.397 2.329-8.384 11.645-15.837 20.495-13.508 3.726 0.932 11.179-8.85 13.508-9.782 3.726-1.397 1.863 3.726 1.863 6.987 8.85-6.987 20.961-10.713 32.14-14.906" fill="white" fill-rule="nonzero" stroke="none" stroke-width="1" stroke-linecap="butt" stroke-linejoin="miter" stroke-miterlimit="10" stroke-dasharray="" stroke-dashoffset="0" font-family="none" font-weight="none" font-size="none" text-anchor="none" style="mix-blend-mode: normal"></path></g><g transform="matrix(1,0,0,1,64,144.33777777777777)"><svg viewBox="0 0 192 71.32444444444445" height="71.32444444444445" width="192"><g><svg viewBox="0 0 192 71.32444444444445" height="71.32444444444445" width="192"><g><svg viewBox="0 0 192 71.32444444444445" height="71.32444444444445" width="192"><g><svg viewBox="0 0 192 71.32444444444445" height="71.32444444444445" width="192"><g id="SvgjsG1767"><svg viewBox="0 0 192 71.32444444444445" height="71.32444444444445" width="192" id="SvgjsSvg1766"><g><svg viewBox="0 0 192 71.32444444444445" height="71.32444444444445" width="192"><g transform="matrix(1,0,0,1,0,0)"><svg width="192" viewBox="3.999999999999999 -40 270 97.15" height="71.32444444444445" data-palette-color="url(#cafe1129-25b8-4bf1-8494-aeb4bbc69642)"><svg></svg><svg></svg><g class="wordmark-text-0" data-fill-palette-color="primary" id="SvgjsG1765"></g></svg></g></svg></g></svg></g></svg></g><g></g></svg></g></svg></g></svg></g></svg></g><defs><mask></mask></defs><mask><g id="SvgjsG1764"><svg viewBox="0 0 320 360" height="360" width="320"><g><svg></svg></g><g><svg viewBox="0 0 320 360" height="360" width="320"><g><path d="M20.961 227.22l3.726 4.658-1.863-6.056c-0.466-2.795-3.726 0.466-1.863 1.398M25.153 224.425c1.397 2.329 2.795 4.658 2.795 6.987 0 3.261 2.795 4.658 5.123 5.589-3.261-3.726-5.124-13.974-7.918-12.576M204.017 26.929c7.918 0 15.371-0.932 23.756 0.931 20.495 5.124 37.729 15.371 49.374 29.811l32.606 52.169c1.397 13.042 4.192 27.482 3.726 43.319 3.261 0 2.795-4.658 6.521-5.59-3.726 9.316-5.59 20.961-6.521 34.469-2.329-7.453 0-18.632 0.466-24.687-3.261 5.124-5.124 1.397-5.124-0.932 0.466-3.726-1.397-3.261-2.795-4.658-5.124-4.658-8.384-9.782-12.11-17.7 2.329-6.055 2.795-14.905-4.658-19.563-2.329-1.397-5.124-3.726-6.521-7.453-1.863-5.124-5.124-11.179-4.193-19.097 0.466-2.329-6.987 5.124-11.179 1.863-18.166-12.576-36.332-27.016-58.224-39.127-11.645 0-20.029-4.192-24.221-9.316-3.726-4.658-0.932-10.713 4.658-11.179 3.261 0 6.987-0.932 9.782 0.932 0.466-1.863 2.329-4.192 4.657-4.192M157.904 16.215l0.932 0.466c4.658 0.932 6.987 7.453 12.11 5.124 0 3.261 0.466 6.521-0.466 8.85-1.397 3.726-5.59 3.726-8.85 3.726-31.208-1.863-49.374 11.179-68.471 22.358-5.124 3.261-10.713 5.59-14.906 9.782-20.029 18.632-41.921 35.866-47.045 70.335l-4.192 38.195c-0.466 4.192-5.124 8.384-4.192 13.508l3.26 22.824c-3.261-3.261-5.124 0.932-4.192 2.795 0.466 1.397 2.329 6.055 5.124 1.863 3.726 6.987 7.453 20.495 12.576 26.55 15.837 18.632 36.332 35.4 53.101 52.169 4.192-0.932 7.453-0.932 8.384-3.727 1.397 2.795-1.397 5.59-3.726 6.056 7.453 4.658 15.837 8.85 27.016 9.781 14.44 0.932 27.948 3.261 40.524 6.522 6.521-1.863 13.042-2.795 20.029-3.261 2.329 0 3.726-3.726 6.521-4.658l0.466-4.658c2.795 4.192 2.329-1.397 0.466-4.192 3.261 2.795 4.192 5.124 5.589 6.987 0-1.397 3.726-6.521 3.727-0.466l0.931-6.055c1.397-0.932 1.863 5.124 3.261 0.931 1.397-4.192 4.192-0.932 6.987-2.329-0.932 1.863-0.466 5.59 2.794 3.261l3.727-3.261c2.329 5.59 6.055 3.261 7.918 2.329 20.495-13.042 40.99-28.413 60.553-43.784l-0.466 6.055 2.329-7.453c2.329 2.329 4.192 0.466 5.124-0.931 2.795-4.658 6.521-9.316 12.577-13.508-7.453 20.029-16.303 35.866-27.482 48.908l-4.658 5.59c0 3.261-0.932 7.453-4.658 7.918-1.863 0.466-5.59-0.932-8.384 1.863-1.397 1.863 3.261 5.59-0.466 2.795-3.261-2.329-6.521 0-10.248 0.932-2.795 0.932 1.863 3.726 2.795 5.589 0.932 1.863 1.863 3.726 1.398 6.056l-5.124-5.59c-6.055 3.261-9.782 9.316-14.906 13.974-2.329 1.863-1.397 5.124-1.397 7.918-3.261 0-6.987-0.932-8.85 0.932-1.397 1.863-0.932 4.658-0.932 7.453-4.658-0.466-5.124-7.453-9.315-6.056-4.192 0.932-8.85 1.397-12.577 3.727 2.795 5.59-4.658 2.329-3.726 3.26-6.987-4.192-13.042-7.453-20.495-4.658-15.837-5.124-35.4-2.795-49.84-0.931 0-2.329 0.466-4.658-0.466-5.124-0.932 2.329-3.726 1.397-3.26 1.397-8.85-6.055-17.7-9.782-27.016-14.905-8.384 0.932-16.303-3.261-18.632-5.59-6.521-6.055-13.974-2.795-20.029-4.192-13.042-3.261-17.7-16.769-19.098-26.084-0.932-4.658-4.658-6.521-6.055-6.056-6.055-19.563-15.371-37.263-22.824-55.429-1.863-4.658-1.397-9.316-1.397-14.44 2.329 0.932 4.658 0.466 4.192-2.794-2.329-15.371-7.918-27.016-13.974-38.195 3.261-15.837 3.726-34.469 11.179-48.443 6.521-12.576 18.632-19.098 27.016-29.811 2.795-3.726 2.795-8.85 5.59-12.11 9.316-9.316 18.632-19.098 28.879-27.482 4.658-3.726 10.247 0 17.234-1.397 2.329-8.384 11.645-15.837 20.495-13.508 3.726 0.932 11.179-8.85 13.508-9.782 3.726-1.397 1.863 3.726 1.863 6.987 8.85-6.987 20.961-10.713 32.14-14.906" fill="black" fill-rule="nonzero" stroke="none" stroke-width="1" stroke-linecap="butt" stroke-linejoin="miter" stroke-miterlimit="10" stroke-dasharray="" stroke-dashoffset="0" font-family="none" font-weight="none" font-size="none" text-anchor="none" style="mix-blend-mode: normal"></path></g><g transform="matrix(1,0,0,1,64,144.33777777777777)"><svg viewBox="0 0 192 71.32444444444445" height="71.32444444444445" width="192"><g><svg viewBox="0 0 192 71.32444444444445" height="71.32444444444445" width="192"><g><svg viewBox="0 0 192 71.32444444444445" height="71.32444444444445" width="192"><g><svg viewBox="0 0 192 71.32444444444445" height="71.32444444444445" width="192"><g id="SvgjsG1763"><svg viewBox="0 0 192 71.32444444444445" height="71.32444444444445" width="192" id="SvgjsSvg1762"><g><svg viewBox="0 0 192 71.32444444444445" height="71.32444444444445" width="192"><g transform="matrix(1,0,0,1,0,0)"><svg width="192" viewBox="3.999999999999999 -40 270 97.15" height="71.32444444444445" data-palette-color="url(#cafe1129-25b8-4bf1-8494-aeb4bbc69642)"><svg></svg><svg></svg><g class="wordmark-text-0" data-fill-palette-color="primary" id="SvgjsG1761"><path d="M13.3-22.85h9.65c0.867 0 1.767 0.183 2.7 0.55 0.933 0.367 1.833 0.85 2.7 1.45v0h-0.05c0.867 0.6 1.533 1.417 2 2.45 0.467 1.033 0.7 2.217 0.7 3.55v0 6.85c0 2.7-0.9 4.717-2.7 6.05v0c-0.867 0.633-1.757 1.123-2.67 1.47-0.92 0.353-1.813 0.53-2.68 0.53v0h-10.9c-0.867 0-1.757-0.177-2.67-0.53-0.92-0.347-1.813-0.837-2.68-1.47v0c-1.8-1.333-2.7-3.35-2.7-6.05v0-3.3c0-1.567 0.983-2.35 2.95-2.35v0c2 0 3 0.783 3 2.35v0 2.9c0 0.867 0.25 1.65 0.75 2.35 0.5 0.7 1.367 1.05 2.6 1.05v0h8.4c1.233 0 2.1-0.35 2.6-1.05 0.5-0.7 0.75-1.483 0.75-2.35v0-6.05c0-0.833-0.25-1.61-0.75-2.33-0.5-0.713-1.367-1.07-2.6-1.07v0h-9.65c-1.733 0-3.517-0.633-5.35-1.9v0c-1.8-1.4-2.7-3.417-2.7-6.05v0-5.95c0-1.333 0.233-2.507 0.7-3.52 0.467-1.02 1.133-1.847 2-2.48v0h-0.05c0.867-0.567 1.767-1.033 2.7-1.4 0.933-0.367 1.833-0.55 2.7-0.55v0h10.9c0.867 0 1.767 0.183 2.7 0.55 0.933 0.367 1.833 0.833 2.7 1.4v0h-0.05c0.867 0.633 1.533 1.46 2 2.48 0.467 1.013 0.7 2.187 0.7 3.52v0 2.95c0 1.567-1 2.35-3 2.35v0c-1.967 0-2.95-0.783-2.95-2.35v0-2.5c0-0.833-0.25-1.6-0.75-2.3-0.5-0.7-1.367-1.05-2.6-1.05v0h-8.4c-1.233 0-2.1 0.35-2.6 1.05-0.5 0.7-0.75 1.467-0.75 2.3v0 5.1c0 0.867 0.25 1.64 0.75 2.32 0.5 0.687 1.367 1.03 2.6 1.03zM54.45 0h-5.95c-1.2 0-1.833-0.783-1.9-2.35v0c0-1.567 0.633-2.35 1.9-2.35v0h5.05c1.233 0 2.11-0.35 2.63-1.05 0.513-0.7 0.77-1.45 0.77-2.25v0-14.1c0-0.833-0.257-1.61-0.77-2.33-0.52-0.713-1.413-1.037-2.68-0.97v0h-9.6v30.05c0 1.567-0.917 2.35-2.75 2.35v0c-1.833 0-2.75-0.8-2.75-2.4v0-31.75c0-1.167 0.3-1.95 0.9-2.35 0.6-0.4 1.333-0.6 2.2-0.6v0h12.95c0.867 0 1.743 0.15 2.63 0.45 0.88 0.3 1.787 0.717 2.72 1.25v0c0.8 0.567 1.443 1.357 1.93 2.37 0.48 1.02 0.72 2.213 0.72 3.58v0 14.8c0 2.733-0.883 4.683-2.65 5.85v0c-1.867 1.2-3.65 1.8-5.35 1.8zM74.2-22.15v14.15c0 0.8 0.26 1.55 0.78 2.25 0.513 0.7 1.387 1.05 2.62 1.05v0h6.25c1.233 0 2.11-0.31 2.63-0.93 0.513-0.613 0.77-1.32 0.77-2.12v0-0.55c0-1.567 0.917-2.35 2.75-2.35v0c1.833 0 2.75 0.783 2.75 2.35v0 0.6c0 1.4-0.223 2.55-0.67 3.45-0.453 0.9-1.13 1.683-2.03 2.35v0c-1.767 1.267-3.533 1.9-5.3 1.9v0h-8.4c-1.767 0-3.483-0.633-5.15-1.9v0c-0.8-0.667-1.417-1.507-1.85-2.52-0.433-1.02-0.65-2.197-0.65-3.53v0-14.25c0-2.7 0.833-4.7 2.5-6v0c0.833-0.6 1.693-1.077 2.58-1.43 0.88-0.347 1.737-0.52 2.57-0.52v0h8.4c0.8 0 1.683 0.157 2.65 0.47 0.967 0.32 1.867 0.747 2.7 1.28v0c0.8 0.567 1.443 1.35 1.93 2.35 0.48 1 0.72 2.183 0.72 3.55v0 6.75c0 0.767-0.223 1.45-0.67 2.05-0.453 0.6-1.28 0.9-2.48 0.9v0h-10.8c-1.2 0-1.833-0.783-1.9-2.35v0c0-1.567 0.633-2.35 1.9-2.35v0h8.5l-0.05-4.65c0-0.833-0.257-1.593-0.77-2.28-0.52-0.68-1.397-1.02-2.63-1.02v0h-6.25c-1.233 0-2.107 0.34-2.62 1.02-0.52 0.687-0.78 1.447-0.78 2.28zM104.6-22.15v14.15c0 0.8 0.26 1.55 0.78 2.25 0.513 0.7 1.387 1.05 2.62 1.05v0h6.25c1.233 0 2.11-0.31 2.63-0.93 0.513-0.613 0.77-1.32 0.77-2.12v0-0.55c0-1.567 0.917-2.35 2.75-2.35v0c1.833 0 2.75 0.783 2.75 2.35v0 0.6c0 1.4-0.223 2.55-0.67 3.45-0.453 0.9-1.13 1.683-2.03 2.35v0c-1.767 1.267-3.533 1.9-5.3 1.9v0h-8.4c-1.767 0-3.483-0.633-5.15-1.9v0c-0.8-0.667-1.417-1.507-1.85-2.52-0.433-1.02-0.65-2.197-0.65-3.53v0-14.25c0-2.7 0.833-4.7 2.5-6v0c0.833-0.6 1.693-1.077 2.58-1.43 0.88-0.347 1.737-0.52 2.57-0.52v0h8.4c0.8 0 1.683 0.157 2.65 0.47 0.967 0.32 1.867 0.747 2.7 1.28v0c0.8 0.567 1.443 1.35 1.93 2.35 0.48 1 0.72 2.183 0.72 3.55v0 6.75c0 0.767-0.223 1.45-0.67 2.05-0.453 0.6-1.28 0.9-2.48 0.9v0h-10.8c-1.2 0-1.833-0.783-1.9-2.35v0c0-1.567 0.633-2.35 1.9-2.35v0h8.5l-0.05-4.65c0-0.833-0.257-1.593-0.77-2.28-0.52-0.68-1.397-1.02-2.63-1.02v0h-6.25c-1.233 0-2.107 0.34-2.62 1.02-0.52 0.687-0.78 1.447-0.78 2.28zM148.05-1.75v-23.65h-9.65c-1.367 0-2.267 0.4-2.7 1.2v0c-0.467 0.7-0.7 1.517-0.7 2.45v0 14.4c0 0.867 0.267 1.523 0.8 1.97 0.533 0.453 1.417 0.68 2.65 0.68v0h5.15c1.2 0 1.8 0.783 1.8 2.35v0c0 0.667-0.14 1.223-0.42 1.67-0.287 0.453-0.747 0.68-1.38 0.68v0h-6.05c-2.1 0-3.967-0.533-5.6-1.6v0c-1.633-1-2.45-2.9-2.45-5.7v0-14.9c0-1.367 0.217-2.55 0.65-3.55 0.433-1 1.117-1.817 2.05-2.45v0c1.767-1.267 3.533-1.9 5.3-1.9v0h10.55v-7.5c0-1.6 0.917-2.4 2.75-2.4v0c1.833 0 2.75 0.8 2.75 2.4v0 35.5c0 1.6-0.917 2.4-2.75 2.4v0c-0.7 0-1.333-0.127-1.9-0.38-0.567-0.247-0.85-0.803-0.85-1.67zM165.55-22.75v20.65c0 1.6-0.917 2.4-2.75 2.4v0c-1.9 0-2.85-0.8-2.85-2.4v0-20.7c0-2.733 0.817-4.633 2.45-5.7v0c1.633-1.067 3.517-1.6 5.65-1.6v0h5.7c1.233 0 1.85 0.783 1.85 2.35v0c0.067 1.567-0.55 2.35-1.85 2.35v0h-5.3c-1.2 0-1.983 0.233-2.35 0.7-0.367 0.467-0.55 1.117-0.55 1.95zM203.9-28v20.05c0 1.333-0.233 2.517-0.7 3.55-0.467 1.033-1.133 1.867-2 2.5v0h0.05c-0.833 0.567-1.717 1.023-2.65 1.37-0.933 0.353-1.833 0.53-2.7 0.53v0h-8.05c-0.833 0-1.723-0.177-2.67-0.53-0.953-0.347-1.847-0.803-2.68-1.37v0h0.05c-0.867-0.633-1.533-1.467-2-2.5-0.467-1.033-0.7-2.217-0.7-3.55v0-20.05c0-1.6 0.917-2.4 2.75-2.4v0c1.833 0 2.75 0.8 2.75 2.4v0 19.65c0 0.933 0.233 1.75 0.7 2.45v0c0.433 0.8 1.333 1.2 2.7 1.2v0h6.25c1.333 0 2.217-0.4 2.65-1.2v0l-0.05 0.05c0.533-0.8 0.8-1.633 0.8-2.5v0-19.65c0-1.6 0.917-2.4 2.75-2.4v0c1.833 0 2.75 0.8 2.75 2.4zM215.65-21.75v19.65c0 1.6-0.917 2.4-2.75 2.4v0c-1.833 0-2.75-0.8-2.75-2.4v0-20.1c0-1.367 0.217-2.55 0.65-3.55 0.433-1 1.117-1.817 2.05-2.45v0c1.767-1.267 3.533-1.9 5.3-1.9v0h8.05c1.7 0 3.467 0.633 5.3 1.9v0c1.8 1.267 2.7 3.267 2.7 6v0 20.1c0 1.6-0.917 2.4-2.75 2.4v0c-1.833 0-2.75-0.8-2.75-2.4v0-19.65c0-0.867-0.267-1.7-0.8-2.5v0l0.05 0.05c-0.433-0.8-1.317-1.2-2.65-1.2v0h-6.25c-1.367 0-2.267 0.4-2.7 1.2v0c-0.467 0.7-0.7 1.517-0.7 2.45z" fill="black" fill-rule="nonzero" stroke="none" stroke-width="1" stroke-linecap="butt" stroke-linejoin="miter" stroke-miterlimit="10" stroke-dasharray="" stroke-dashoffset="0" font-family="none" font-weight="none" font-size="none" text-anchor="none" style="mix-blend-mode: normal" opacity="1"></path><path d="M14.85 45.15h6.8c1.233 0 2.1-0.35 2.6-1.05 0.5-0.7 0.75-1.483 0.75-2.35v0-22.9c0-0.833-0.25-1.6-0.75-2.3-0.5-0.7-1.367-1.05-2.6-1.05v0h-11.7l-0.05 32.6c0 0.733-0.283 1.317-0.85 1.75-0.567 0.433-1.267 0.65-2.1 0.65v0c-1.967 0-2.95-0.8-2.95-2.4v0-34.65c0-1.2 0.31-2 0.93-2.4 0.613-0.4 1.353-0.6 2.22-0.6v0h15.75c0.867 0 1.767 0.183 2.7 0.55 0.933 0.367 1.833 0.833 2.7 1.4v0h-0.05c0.867 0.633 1.533 1.46 2 2.48 0.467 1.013 0.7 2.187 0.7 3.52v0 23.75c0 2.7-0.9 4.717-2.7 6.05v0c-0.867 0.633-1.757 1.123-2.67 1.47-0.92 0.353-1.813 0.53-2.68 0.53v0h-8.4c-0.567 0-1.007-0.233-1.32-0.7-0.32-0.467-0.48-1.083-0.48-1.85v0c0-1.667 0.717-2.5 2.15-2.5zM43.55 28v14.15c0 0.8 0.26 1.55 0.78 2.25 0.513 0.7 1.387 1.05 2.62 1.05v0h6.25c1.233 0 2.11-0.31 2.63-0.93 0.513-0.613 0.77-1.32 0.77-2.12v0-0.55c0-1.567 0.917-2.35 2.75-2.35v0c1.833 0 2.75 0.783 2.75 2.35v0 0.6c0 1.4-0.227 2.55-0.68 3.45-0.447 0.9-1.12 1.683-2.02 2.35v0c-1.767 1.267-3.533 1.9-5.3 1.9v0h-8.4c-1.767 0-3.483-0.633-5.15-1.9v0c-0.8-0.667-1.417-1.507-1.85-2.52-0.433-1.02-0.65-2.197-0.65-3.53v0-14.25c0-2.7 0.833-4.7 2.5-6v0c0.833-0.6 1.693-1.077 2.58-1.43 0.88-0.347 1.737-0.52 2.57-0.52v0h8.4c0.8 0 1.683 0.157 2.65 0.47 0.967 0.32 1.867 0.747 2.7 1.28v0c0.8 0.567 1.443 1.35 1.93 2.35 0.48 1 0.72 2.183 0.72 3.55v0 6.75c0 0.767-0.227 1.45-0.68 2.05-0.447 0.6-1.27 0.9-2.47 0.9v0h-10.8c-1.2 0-1.833-0.783-1.9-2.35v0c0-1.567 0.633-2.35 1.9-2.35v0h8.5l-0.05-4.65c0-0.833-0.257-1.593-0.77-2.28-0.52-0.68-1.397-1.02-2.63-1.02v0h-6.25c-1.233 0-2.107 0.34-2.62 1.02-0.52 0.687-0.78 1.447-0.78 2.28zM79.2 50.45h-0.55c-0.067 0-0.15-0.007-0.25-0.02-0.1-0.02-0.2-0.03-0.3-0.03v0c-0.167 0-0.4 0-0.7 0v0c-0.3 0-0.583-0.017-0.85-0.05v0c-0.567-0.033-1.05-0.193-1.45-0.48-0.4-0.28-0.683-0.62-0.85-1.02v0l-8.4-25.8c-0.167-0.7-0.073-1.327 0.28-1.88 0.347-0.547 0.903-0.953 1.67-1.22v0c0.233-0.067 0.467-0.117 0.7-0.15 0.233-0.033 0.433-0.05 0.6-0.05v0c1.033 0 1.75 0.567 2.15 1.7v0l3.65 11.35 3.85 11.9 7.5-23.25c0.367-1.167 1.033-1.75 2-1.75v0c0.367 0 0.833 0.083 1.4 0.25v0c0.867 0.233 1.467 0.623 1.8 1.17 0.333 0.553 0.383 1.197 0.15 1.93v0l-8.35 25.8c-0.3 0.933-1.083 1.433-2.35 1.5v0c-0.067 0-0.14 0.01-0.22 0.03-0.087 0.013-0.163 0.02-0.23 0.02v0c-0.267 0.033-0.5 0.05-0.7 0.05v0c-0.2 0-0.383 0-0.55 0zM101.55 28v14.15c0 0.8 0.26 1.55 0.78 2.25 0.513 0.7 1.387 1.05 2.62 1.05v0h6.25c1.233 0 2.11-0.31 2.63-0.93 0.513-0.613 0.77-1.32 0.77-2.12v0-0.55c0-1.567 0.917-2.35 2.75-2.35v0c1.833 0 2.75 0.783 2.75 2.35v0 0.6c0 1.4-0.227 2.55-0.68 3.45-0.447 0.9-1.12 1.683-2.02 2.35v0c-1.767 1.267-3.533 1.9-5.3 1.9v0h-8.4c-1.767 0-3.483-0.633-5.15-1.9v0c-0.8-0.667-1.417-1.507-1.85-2.52-0.433-1.02-0.65-2.197-0.65-3.53v0-14.25c0-2.7 0.833-4.7 2.5-6v0c0.833-0.6 1.693-1.077 2.58-1.43 0.88-0.347 1.737-0.52 2.57-0.52v0h8.4c0.8 0 1.683 0.157 2.65 0.47 0.967 0.32 1.867 0.747 2.7 1.28v0c0.8 0.567 1.443 1.35 1.93 2.35 0.48 1 0.72 2.183 0.72 3.55v0 6.75c0 0.767-0.227 1.45-0.68 2.05-0.447 0.6-1.27 0.9-2.47 0.9v0h-10.8c-1.2 0-1.833-0.783-1.9-2.35v0c0-1.567 0.633-2.35 1.9-2.35v0h8.5l-0.05-4.65c0-0.833-0.257-1.593-0.77-2.28-0.52-0.68-1.397-1.02-2.63-1.02v0h-6.25c-1.233 0-2.107 0.34-2.62 1.02-0.52 0.687-0.78 1.447-0.78 2.28zM132.15 12.35v35.85c0 1.567-0.917 2.35-2.75 2.35v0c-1.867 0-2.8-0.783-2.8-2.35v0-35.85c0-1.567 0.933-2.35 2.8-2.35v0c1.833 0 2.75 0.783 2.75 2.35zM147.05 20.05h8c0.867 0 1.757 0.183 2.67 0.55 0.92 0.367 1.813 0.833 2.68 1.4v0h-0.05c0.867 0.633 1.533 1.457 2 2.47 0.467 1.02 0.7 2.197 0.7 3.53v0 14.2c0 2.733-0.9 4.75-2.7 6.05v0c-1.767 1.267-3.533 1.9-5.3 1.9v0h-8c-0.867 0-1.75-0.15-2.65-0.45-0.9-0.3-1.783-0.783-2.65-1.45v0c-1.8-1.267-2.7-3.283-2.7-6.05v0-14.2c0-1.333 0.233-2.51 0.7-3.53 0.467-1.013 1.133-1.837 2-2.47v0h-0.05c0.833-0.567 1.717-1.033 2.65-1.4 0.933-0.367 1.833-0.55 2.7-0.55zM147.95 45.45h6.2c1.233 0 2.11-0.35 2.63-1.05 0.513-0.7 0.77-1.45 0.77-2.25v0-14.1c0-0.833-0.257-1.593-0.77-2.28-0.52-0.68-1.397-1.02-2.63-1.02v0h-6.2c-1.233 0-2.11 0.34-2.63 1.02-0.513 0.687-0.77 1.447-0.77 2.28v0 14.1c0 0.8 0.257 1.55 0.77 2.25 0.52 0.7 1.397 1.05 2.63 1.05zM185.4 50.15h-5.95c-1.2 0-1.833-0.783-1.9-2.35v0c0-1.567 0.633-2.35 1.9-2.35v0h5.05c1.233 0 2.11-0.35 2.63-1.05 0.513-0.7 0.77-1.45 0.77-2.25v0-14.1c0-0.833-0.257-1.61-0.77-2.33-0.52-0.713-1.413-1.037-2.68-0.97v0h-9.6v30.05c0 1.567-0.917 2.35-2.75 2.35v0c-1.833 0-2.75-0.8-2.75-2.4v0-31.75c0-1.167 0.3-1.95 0.9-2.35 0.6-0.4 1.333-0.6 2.2-0.6v0h12.95c0.867 0 1.743 0.15 2.63 0.45 0.88 0.3 1.787 0.717 2.72 1.25v0c0.8 0.567 1.443 1.357 1.93 2.37 0.48 1.02 0.72 2.213 0.72 3.58v0 14.8c0 2.733-0.883 4.683-2.65 5.85v0c-1.867 1.2-3.65 1.8-5.35 1.8zM205.15 28v14.15c0 0.8 0.26 1.55 0.78 2.25 0.513 0.7 1.387 1.05 2.62 1.05v0h6.25c1.233 0 2.11-0.31 2.63-0.93 0.513-0.613 0.77-1.32 0.77-2.12v0-0.55c0-1.567 0.917-2.35 2.75-2.35v0c1.833 0 2.75 0.783 2.75 2.35v0 0.6c0 1.4-0.223 2.55-0.67 3.45-0.453 0.9-1.13 1.683-2.03 2.35v0c-1.767 1.267-3.533 1.9-5.3 1.9v0h-8.4c-1.767 0-3.483-0.633-5.15-1.9v0c-0.8-0.667-1.417-1.507-1.85-2.52-0.433-1.02-0.65-2.197-0.65-3.53v0-14.25c0-2.7 0.833-4.7 2.5-6v0c0.833-0.6 1.693-1.077 2.58-1.43 0.88-0.347 1.737-0.52 2.57-0.52v0h8.4c0.8 0 1.683 0.157 2.65 0.47 0.967 0.32 1.867 0.747 2.7 1.28v0c0.8 0.567 1.443 1.35 1.93 2.35 0.48 1 0.72 2.183 0.72 3.55v0 6.75c0 0.767-0.223 1.45-0.67 2.05-0.453 0.6-1.28 0.9-2.48 0.9v0h-10.8c-1.2 0-1.833-0.783-1.9-2.35v0c0-1.567 0.633-2.35 1.9-2.35v0h8.5l-0.05-4.65c0-0.833-0.257-1.593-0.77-2.28-0.52-0.68-1.397-1.02-2.63-1.02v0h-6.25c-1.233 0-2.107 0.34-2.62 1.02-0.52 0.687-0.78 1.447-0.78 2.28zM235.45 27.4v20.65c0 1.6-0.917 2.4-2.75 2.4v0c-1.9 0-2.85-0.8-2.85-2.4v0-20.7c0-2.733 0.817-4.633 2.45-5.7v0c1.633-1.067 3.517-1.6 5.65-1.6v0h5.7c1.233 0 1.85 0.783 1.85 2.35v0c0.067 1.567-0.55 2.35-1.85 2.35v0h-5.3c-1.2 0-1.983 0.233-2.35 0.7-0.367 0.467-0.55 1.117-0.55 1.95zM258.65 32.65h7.35c0.833 0 1.727 0.19 2.68 0.57 0.947 0.387 1.837 0.863 2.67 1.43v0h-0.05c0.867 0.633 1.533 1.45 2 2.45 0.467 1 0.7 2.2 0.7 3.6v0 1.5c0 2.733-0.9 4.75-2.7 6.05v0c-0.867 0.667-1.75 1.15-2.65 1.45-0.9 0.3-1.783 0.45-2.65 0.45v0h-8.5c-0.867 0-1.75-0.15-2.65-0.45-0.9-0.3-1.783-0.783-2.65-1.45v0c-1.8-1.267-2.7-3.283-2.7-6.05v0-0.6c0-1.433 0.917-2.133 2.75-2.1v0c1.867 0 2.8 0.7 2.8 2.1v0 0.55c0 0.8 0.25 1.55 0.75 2.25 0.5 0.7 1.383 1.05 2.65 1.05v0h6.6c1.267 0 2.15-0.35 2.65-1.05 0.5-0.7 0.75-1.45 0.75-2.25v0-1.4c0-0.433-0.057-0.85-0.17-1.25-0.12-0.4-0.313-0.76-0.58-1.08-0.267-0.313-0.617-0.57-1.05-0.77-0.433-0.2-0.967-0.3-1.6-0.3v0h-7.3c-1.7 0-3.483-0.6-5.35-1.8v0c-1.767-1.133-2.65-3.083-2.65-5.85v0-1.7c0-1.333 0.233-2.51 0.7-3.53 0.467-1.013 1.133-1.837 2-2.47v0h-0.05c0.833-0.567 1.717-1.033 2.65-1.4 0.933-0.367 1.833-0.55 2.7-0.55v0h8c0.867 0 1.76 0.183 2.68 0.55 0.913 0.367 1.803 0.833 2.67 1.4v0h-0.05c0.867 0.633 1.533 1.457 2 2.47 0.467 1.02 0.7 2.197 0.7 3.53v0 0.45c0 0.7-0.233 1.207-0.7 1.52-0.467 0.32-1.15 0.497-2.05 0.53v0c-1.833 0.033-2.75-0.65-2.75-2.05v0-0.4c0-0.833-0.257-1.593-0.77-2.28-0.52-0.68-1.397-1.02-2.63-1.02v0h-6.2c-1.233 0-2.107 0.34-2.62 1.02-0.52 0.687-0.78 1.447-0.78 2.28v0 1.2c0 0.867 0.26 1.65 0.78 2.35 0.513 0.7 1.387 1.05 2.62 1.05z" fill="black" fill-rule="nonzero" stroke="none" stroke-width="1" stroke-linecap="butt" stroke-linejoin="miter" stroke-miterlimit="10" stroke-dasharray="" stroke-dashoffset="0" font-family="none" font-weight="none" font-size="none" text-anchor="none" style="mix-blend-mode: normal" opacity="1"></path></g></svg></g></svg></g></svg></g></svg></g><g></g></svg></g></svg></g></svg></g></svg></g><defs><mask></mask></defs></svg><rect width="320" height="360" fill="black" stroke="none" visibility="hidden"></rect></g></mask></svg><rect width="320" height="360" fill="black" stroke="none" visibility="hidden"></rect></g></mask><linearGradient x1="0" x2="1" y1="0.578" y2="0.595" id="f08a3b5c-9c89-4e87-bdcd-9bef25a6bd97"><stop stop-color="#6ee2f5" offset="0"></stop><stop stop-color="#6454f0" offset="1"></stop></linearGradient></svg><rect width="320" height="360" fill="none" stroke="none" visibility="hidden"></rect></g></svg></g></svg>